<svg xmlns="http://www.w3.org/2000/svg" width="180" height="180" fill="none">
  <!-- Fond blanc circulaire -->
  <rect width="180" height="180" fill="#ffffff" rx="40" />
  
  <!-- Logo centré -->
  <g transform="translate(36, 28) scale(2.25)">
    <path fill="#00c853" d="M24.75 6C24.25 6 23.75 6.25 23.5 6.75L14 31C13.5 32 14.25 33.25 15.5 33.25H19L13.5 42.75C13.25 43.25 13.5 44 14 44.25C14.5 44.5 15.25 44.25 15.5 43.75L25 19.5C25.5 18.5 24.75 17.25 23.5 17.25H20L25.5 7.25C26 6.25 25.5 5 24.5 5L24.75 6Z"/>
    <path fill="#00c853" d="M28.75 6.5L22.5 16.25C22.25 16.75 22.5 17.5 23 17.5C23.25 17.5 23.5 17.5 23.75 17.25L31.25 11.25C31.75 10.75 31.75 10 31.25 9.5L29.75 6.5C29.5 6 29 5.75 28.5 5.75C28.5 6 28.75 6.25 28.75 6.5Z"/>
    <path fill="#00c853" d="M36.75 15.75L30 21C29.5 21.5 29.5 22.25 30 22.75L33 26.5C33.5 27 34.25 27 34.75 26.5L41.5 21.25C42 20.75 42 20 41.5 19.5L38.5 15.75C38 15.25 37.25 15.25 36.75 15.75Z"/>
  </g>
</svg> 